PathFileType	4	(X/Y/Z)	C:\Users\Basilio\Documents\Thesis Gigler\squatting_fais\c3dfiles\073\SJ_pre1\markers_experimental.trc
DataRate	CameraRate	NumFrames	NumMarkers	Units	OrigDataRate	OrigDataStartFrame	OrigNumFrames
200.000000	200.000000	4	61	mm	200.000000	345	1383
Frame#	Time	FHD			LBHD			RBHD			C7			T10			CLAV			LSHO			LUUPA			LMUPA			LDUPA			LLEP			LMEP			LRAD			LUL			LRFIN			RSHO			RUPA1			RMUPA			RDUPA			RLEP			RMEP			RRAD			RUL			RUFIN			LASI			RASI			USACR			LSACR			RSACR			LTHI1			LTHI2			LTHI3			LTHI4			LLFC			LMFC			LTIB1			LTIB2			LTIB3			LTIB4			LLMAL			LMMAL			LHEE			LMT1			LMT2			LMT5			RTHI			RTHI2			RTHI3			RTHI4			RLFC			RMFC			RTIB1			RTIB2			RTIB3			RTIB4			RLMAL			RMMAL			RHEE			RMT1			RMT2			RMT5			
		X1	Y1	Z1	X2	Y2	Z2	X3	Y3	Z3	X4	Y4	Z4	X5	Y5	Z5	X6	Y6	Z6	X7	Y7	Z7	X8	Y8	Z8	X9	Y9	Z9	X10	Y10	Z10	X11	Y11	Z11	X12	Y12	Z12	X13	Y13	Z13	X14	Y14	Z14	X15	Y15	Z15	X16	Y16	Z16	X17	Y17	Z17	X18	Y18	Z18	X19	Y19	Z19	X20	Y20	Z20	X21	Y21	Z21	X22	Y22	Z22	X23	Y23	Z23	X24	Y24	Z24	X25	Y25	Z25	X26	Y26	Z26	X27	Y27	Z27	X28	Y28	Z28	X29	Y29	Z29	X30	Y30	Z30	X31	Y31	Z31	X32	Y32	Z32	X33	Y33	Z33	X34	Y34	Z34	X35	Y35	Z35	X36	Y36	Z36	X37	Y37	Z37	X38	Y38	Z38	X39	Y39	Z39	X40	Y40	Z40	X41	Y41	Z41	X42	Y42	Z42	X43	Y43	Z43	X44	Y44	Z44	X45	Y45	Z45	X46	Y46	Z46	X47	Y47	Z47	X48	Y48	Z48	X49	Y49	Z49	X50	Y50	Z50	X51	Y51	Z51	X52	Y52	Z52	X53	Y53	Z53	X54	Y54	Z54	X55	Y55	Z55	X56	Y56	Z56	X57	Y57	Z57	X58	Y58	Z58	X59	Y59	Z59	X60	Y60	Z60	X61	Y61	Z61	

346	1.725	-57.71078872680665	1476.798706054688	-969.7491455078127	-195.2464904785157	1462.561279296875	-990.8426513671877	-217.3792114257813	1450.305297851563	-857.0620117187502	-255.9652252197266	1386.662841796875	-919.5372314453127	-480.9442749023439	1131.375366210938	-923.6828613281252	-193.9120635986329	1248.373046875	-921.775573730469	-198.8012084960938	1283.438110351563	-1089.773315429688	-288.1656188964844	1243.204223632813	-1216.019409179688	-295.2969970703126	1193.292602539063	-1219.081420898438	-329.8689880371094	1214.403930664063	-1265.019653320313	-396.9930114746095	1153.043334960938	-1322.674560546875	-472.6375427246095	1179.086303710938	-1294.900146484375	-458.3764038085939	955.364685058594	-1155.82763671875	-421.9674072265626	914.2572021484377	-1206.212890625	-430.1114807128907	941.6595458984377	-1105.302856445313	-191.5836029052735	1267.713500976563	-755.2807006835939	-291.2835388183594	1235.088500976563	-610.8190917968751	-300.2449951171876	1187.119018554688	-604.3925170898439	-337.3644409179688	1211.84521484375	-563.6678466796876	-392.9226684570314	1151.746459960938	-514.7935791015626	-471.2758178710939	1180.29833984375	-559.1417236328126	-490.7294006347657	957.4343872070315	-675.0133666992189	-447.969940185547	914.7524414062502	-627.7542724609376	-443.8194885253907	936.076354980469	-728.3911132812501	-397.1993713378907	924.8847656250002	-1047.677856445313	-405.2662658691407	912.026794433594	-803.012145996094	-553.9816284179689	1030.6572265625	-920.6777343750002	-573.5590820312501	1007.654846191406	-950.1687622070315	-578.2449951171876	1004.699401855469	-893.9461669921877	-356.9317016601563	670.6325683593751	-1155.024780273438	-289.3447265625001	617.6342773437501	-1152.456787109375	-252.2091827392579	637.1914672851564	-1124.677124023438	-291.6289672851563	558.9293823242189	-1144.850463867188	-275.4333801269532	502.8939514160157	-1155.688354492188	-265.4047241210938	487.5408020019532	-1023.18408203125	-259.8529052734376	300.9447326660157	-1120.896484375	-330.3779602050782	279.9520874023438	-1170.722534179688	-293.8533630371094	262.8057250976563	-1152.393920898438	-310.4501647949219	185.0770263671875	-1122.592041015625	-402.2976379394532	85.3811492919922	-1152.329711914063	-382.8591918945313	105.2014236450196	-1065.448120117188	-459.9373168945314	49.11629104614259	-1106.088256835938	-230.8626098632813	55.63268661499025	-1091.926635742188	-234.5226135253907	56.60180664062501	-1130.880493164063	-273.1971130371094	36.12002182006837	-1182.008056640625	-437.374969482422	727.7346191406251	-694.3681640625001	-379.6316223144532	697.3973999023439	-682.2050781250001	-350.5408020019532	713.0292358398439	-687.8931274414064	-365.1325073242188	613.8794555664064	-686.9897460937501	-296.6433410644532	489.8455505371095	-675.1729736328126	-275.1798400878907	463.4122009277345	-798.7634277343752	-279.5324707031251	316.6910705566407	-743.0671386718751	-330.7929687500001	252.0685424804688	-671.3895263671876	-304.2979431152344	240.6030731201172	-710.0675048828126	-330.4693298339844	197.8816833496094	-739.9683837890626	-411.4716796875001	84.88021850585939	-679.2689819335939	-394.8573608398439	101.9247589111328	-767.8556518554689	-478.0155029296876	44.37029266357423	-736.5472412109376	-249.7488861083985	56.90260314941408	-718.7889404296876	-254.3844604492188	57.40177154541017	-677.7152709960939	-300.4126586914063	34.93889617919923	-634.1008911132814	
347	1.73	-56.41401290893556	1472.6923828125	-969.1368408203127	-193.5025787353516	1458.5498046875	-990.419128417969	-215.8638305664063	1446.140991210938	-856.7957153320315	-254.4737854003907	1382.996704101563	-919.0224609375002	-480.7563476562501	1128.921752929688	-923.1407470703127	-193.0302276611329	1244.431396484375	-921.264099121094	-197.7063751220704	1279.322631835938	-1089.140014648438	-286.8219299316407	1239.700805664063	-1215.461547851563	-295.1911315917969	1189.742309570313	-1218.366943359375	-329.0510253906251	1211.250366210938	-1264.629028320313	-396.1772460937501	1150.28857421875	-1322.544921875	-471.7551879882814	1176.833862304688	-1294.9580078125	-459.0719299316407	953.2268066406252	-1155.588745117188	-422.4703369140626	911.7871093750002	-1205.973999023438	-431.529510498047	939.3679199218752	-1105.160278320313	-190.5324859619141	1263.556396484375	-754.7795410156251	-290.2036437988282	1231.260986328125	-610.2667236328126	-299.4844970703126	1183.190063476563	-603.8008422851564	-336.4897766113282	1208.258911132813	-563.2382202148439	-392.3389587402345	1148.5068359375	-514.2058715820314	-470.6465148925782	1177.444702148438	-558.5075683593751	-491.3099060058595	954.7717285156252	-674.6032714843751	-448.5360107421876	912.0104980468752	-627.7322998046876	-444.6203002929689	933.6477050781252	-728.1474609375001	-398.3720703125001	922.2297363281252	-1047.452514648438	-406.0208435058595	909.2197875976565	-802.6583251953127	-554.4130859375001	1028.557495117188	-920.0784912109377	-574.2910156250001	1005.748779296875	-949.4578857421877	-578.8233642578126	1002.629760742188	-893.4074707031252	-356.9317626953126	669.5946655273439	-1154.932495117188	-288.8648376464844	617.0604858398439	-1152.404541015625	-251.9728546142579	636.9161376953126	-1124.423950195313	-290.7195739746094	558.3992309570314	-1144.823974609375	-274.5119934082032	502.4555664062501	-1155.581298828125	-264.4540100097657	487.0401916503907	-1023.27490234375	-259.3634033203126	300.6296081542969	-1120.875854492188	-329.9048156738282	279.7374572753907	-1170.623901367188	-293.4841918945313	262.6309204101563	-1152.429443359375	-310.1222839355469	184.8967437744141	-1122.370971679688	-402.2875366210939	85.41355895996095	-1152.284790039063	-382.8298034667969	105.1882019042969	-1065.323364257813	-459.9360656738282	49.11725997924806	-1106.063720703125	-230.9173583984376	55.65085601806642	-1091.909790039063	-234.4327392578126	56.72409057617189	-1130.869384765625	-273.2390747070313	36.14767837524415	-1182.024169921875	-437.4584960937501	725.8698730468751	-694.4926147460939	-379.5543823242188	695.7816162109376	-681.9441528320314	-350.4645996093751	712.0695800781251	-687.5573730468751	-364.3992614746094	612.4862670898439	-686.4968261718751	-295.0848999023438	489.0872497558595	-674.5415039062501	-274.1538085937501	462.2357177734376	-798.154724121094	-278.3837280273438	316.1971435546876	-742.5773925781251	-329.9872741699219	251.7108306884766	-671.0786132812501	-303.6959533691407	240.1421661376954	-709.8685913085939	-330.0202941894532	197.5811309814454	-739.8232421875001	-411.4471435546876	84.76312255859376	-679.2062988281251	-394.8822021484376	101.9103240966797	-767.6976928710939	-477.9549255371095	44.32915115356446	-736.5753784179689	-249.7653350830079	56.9640579223633	-718.6353759765626	-254.4024658203126	57.14662170410158	-677.3690185546876	-300.4179382324219	34.90096282958985	-634.0451660156251	
348	1.735	-54.95103836059572	1468.417114257813	-968.588073730469	-192.0682678222657	1454.434814453125	-989.921325683594	-214.5333709716797	1442.188232421875	-856.2159423828127	-253.081527709961	1379.28857421875	-918.475524902344	-480.5896606445314	1126.390258789063	-922.531921386719	-192.1729431152344	1240.42822265625	-920.7698364257815	-196.5141296386719	1275.292114257813	-1088.388427734375	-285.7186584472657	1236.176879882813	-1215.04150390625	-294.2663879394532	1186.445434570313	-1217.789794921875	-327.8476867675782	1208.095092773438	-1264.250610351563	-395.2749938964845	1147.580810546875	-1322.37646484375	-470.7200622558595	1174.596435546875	-1295.003051757813	-459.5533142089845	950.8477783203127	-1155.457763671875	-423.0287475585939	909.274353027344	-1205.564331054688	-431.5998535156251	937.2066040039065	-1104.697387695313	-189.4805755615235	1259.454345703125	-754.3090209960939	-289.1893920898438	1227.436401367188	-609.7673950195314	-298.7911376953126	1179.428588867188	-603.3104858398439	-335.5456848144532	1204.597900390625	-562.6863403320314	-391.7796936035157	1145.25146484375	-513.7474975585939	-470.0696411132814	1174.650634765625	-557.8953247070314	-491.8547973632814	952.1654052734377	-674.0991821289064	-448.9346618652345	909.1233520507815	-627.5646972656251	-445.2458801269532	931.1013183593752	-727.8071289062501	-399.4933471679689	919.5883789062502	-1047.107788085938	-407.5652160644532	906.5277099609377	-803.1256103515627	-554.8322143554689	1026.450561523438	-919.5173950195315	-574.6502685546876	1003.765258789063	-949.0549926757815	-579.5947265625001	1000.733032226563	-892.9419555664065	-356.7840881347657	668.6655883789064	-1154.97705078125	-288.3285827636719	616.4657592773439	-1152.401000976563	-251.7761993408204	636.6301269531251	-1124.21240234375	-289.8002624511719	557.7596435546876	-1144.798706054688	-273.4940490722657	501.9292602539064	-1155.533081054688	-263.4726562500001	486.4956665039064	-1023.45654296875	-258.8355407714844	300.1980590820313	-1120.957641601563	-329.5767517089844	279.6254577636719	-1170.573486328125	-293.0626831054688	262.4932861328126	-1152.453247070313	-309.8760986328126	184.7115936279297	-1122.319702148438	-402.2546997070314	85.38155364990236	-1152.164184570313	-382.8161621093751	105.1654052734375	-1065.24755859375	-459.993133544922	49.10961532592775	-1105.93896484375	-230.8626556396485	55.67772674560548	-1091.90185546875	-234.5087280273438	56.81589126586915	-1130.843383789063	-273.1857299804688	36.29221725463868	-1181.955322265625	-437.5344848632814	723.9712524414064	-694.1323242187501	-379.4493408203126	694.3201293945314	-681.4479370117189	-350.5228271484376	710.5300292968751	-686.9681396484376	-363.7905578613282	611.0706176757814	-686.1444091796876	-293.3994445800782	488.4335021972657	-673.8935546875001	-272.4574279785157	462.2793884277345	-797.7026977539065	-277.5260009765626	315.7917785644532	-742.2572631835939	-329.3538818359376	251.2347106933594	-670.8340454101564	-302.9208068847657	239.5916290283204	-709.5347900390626	-329.5592651367188	197.2538452148438	-739.6503295898439	-411.379608154297	84.68981933593751	-679.1868286132814	-394.7657165527345	101.8832626342774	-767.5963745117189	-478.0134887695314	44.32577514648438	-736.5493774414064	-249.7240447998047	57.00288009643556	-718.4388427734376	-254.4306793212891	57.20608520507814	-677.6015014648439	-300.4349975585938	34.83662414550782	-633.9461059570314	
349	1.74	-53.536434173584	1464.356323242188	-968.1398925781252	-190.5838775634766	1450.29248046875	-989.4128417968752	-213.1371612548829	1438.092895507813	-855.7939453125002	-251.7659759521485	1375.609252929688	-917.9997558593752	-480.4564208984376	1123.958129882813	-921.8789062500002	-191.3000030517578	1236.381225585938	-920.3349609375002	-195.4896240234376	1271.307861328125	-1087.6220703125	-284.4569396972657	1232.720092773438	-1214.380981445313	-293.3060607910157	1183.135009765625	-1217.1806640625	-326.7097778320313	1204.988647460938	-1264.047607421875	-394.3635559082032	1144.82373046875	-1322.314819335938	-469.8706970214845	1172.269165039063	-1294.917114257813	-460.2535705566407	948.4788208007815	-1155.251831054688	-423.4318237304689	906.747985839844	-1205.119506835938	-433.018524169922	934.7905883789065	-1104.558349609375	-188.4465789794922	1255.244750976563	-753.8275146484376	-288.1765747070313	1223.48193359375	-609.3045043945314	-298.1665344238282	1175.6015625	-602.8972778320314	-334.7258605957032	1201.00537109375	-562.2399291992189	-391.2346801757814	1141.9736328125	-513.3279418945314	-469.305877685547	1171.760009765625	-557.3862304687501	-492.2851562500001	949.4795532226565	-673.6846313476564	-449.3248901367189	906.2679443359377	-627.1251831054689	-445.8209533691407	928.6859130859377	-727.4722290039064	-400.663787841797	916.8339843750002	-1046.870727539063	-408.415985107422	903.8194580078127	-802.8978271484377	-555.3746948242189	1024.411010742188	-918.976989746094	-575.4837646484376	1001.716125488281	-948.4487304687502	-579.9627685546876	998.5905761718752	-892.3331298828127	-356.9609680175782	667.5794677734376	-1155.017211914063	-287.9002380371094	616.0225830078126	-1152.445556640625	-251.6198425292969	636.3851928710939	-1124.0810546875	-288.8915710449219	557.2211303710939	-1144.873779296875	-272.3787536621094	501.4890441894532	-1155.525146484375	-262.9169921875001	486.0212402343751	-1023.850830078125	-258.2478942871094	299.7726745605469	-1121.120361328125	-329.0339660644532	279.4564819335938	-1170.540405273438	-292.5979003906251	262.3049926757813	-1152.412109375	-309.6019287109376	184.4994201660157	-1122.285766601563	-402.9634094238282	85.19575500488283	-1152.033325195313	-382.7464904785157	105.1381759643555	-1065.19140625	-460.0020446777345	49.12238693237306	-1105.867065429688	-230.8724060058594	55.76491546630861	-1091.946044921875	-234.5247039794922	56.91249847412111	-1130.881469726563	-273.3302307128907	36.26370239257813	-1181.99462890625	-437.5629882812501	722.0222167968751	-693.6785278320314	-379.3278503417969	692.6333007812501	-680.9537353515626	-350.5073852539063	709.2838134765626	-686.5660400390626	-363.0615539550782	609.5479736328126	-685.7787475585939	-291.8432922363282	487.7913513183595	-673.4381713867189	-271.5117187500001	461.1538696289064	-797.2337036132815	-276.3775024414063	314.9797973632813	-741.9611206054689	-328.6549072265626	250.8903045654297	-670.7260742187501	-302.5039062500001	239.1480560302735	-709.4447021484376	-329.1136474609376	196.9211730957032	-739.5675659179689	-411.3474731445314	84.58071136474611	-679.1329345703126	-394.6760559082032	101.8737411499024	-767.4943237304689	-477.991668701172	44.29109954833985	-736.5828247070314	-249.7560424804688	56.9728126525879	-718.3799438476564	-254.4655914306641	57.05589294433595	-677.2346801757814	-300.4383544921876	34.79879760742188	-633.8955688476564	
